<?xml version="1.0" encoding="UTF-8"?>
<svg xmlns="http://www.w3.org/2000/svg" xmlns:xlink="http://www.w3.org/1999/xlink" width="7000px" height="7000px" viewBox="0 0 7000 7000" version="1.1">
<g id="surface1">
<path style=" stroke:none;fill-rule:nonzero;fill:rgb(40.000001%,73.333335%,41.568628%);fill-opacity:1;" d="M 3494.882812 -4.257812 C 3508.789062 -4.257812 3522.695312 -4.21875 3537.03125 -4.179688 C 3736.796875 -3.515625 3932.734375 -0.078125 4128.90625 41.015625 C 4142.226562 43.75 4155.546875 46.445312 4169.296875 49.257812 C 4830.78125 187.617188 5432.148438 487.265625 5919.921875 957.03125 C 5933.4375 970 5933.4375 970 5947.226562 983.203125 C 6076.953125 1108.242188 6196.445312 1235.351562 6302.734375 1380.859375 C 6314.453125 1396.601562 6326.210938 1412.34375 6337.929688 1428.085938 C 6420.46875 1540.078125 6493.75 1656.445312 6562.5 1777.34375 C 6567.5 1785.976562 6572.460938 1794.609375 6577.617188 1803.515625 C 6873.007812 2319.609375 7006.523438 2904.296875 7004.257812 3494.882812 C 7004.257812 3508.789062 7004.21875 3522.695312 7004.179688 3537.03125 C 7003.515625 3736.796875 7000.078125 3932.734375 6958.984375 4128.90625 C 6954.921875 4148.90625 6954.921875 4148.90625 6950.742188 4169.296875 C 6812.382812 4830.78125 6512.734375 5432.148438 6042.96875 5919.921875 C 6034.335938 5928.945312 6025.703125 5937.96875 6016.796875 5947.226562 C 5891.757812 6076.953125 5764.648438 6196.445312 5619.140625 6302.734375 C 5603.398438 6314.453125 5587.65625 6326.210938 5571.914062 6337.929688 C 5459.960938 6420.46875 5343.710938 6494.0625 5222.65625 6562.5 C 5212.96875 6568.007812 5203.320312 6573.515625 5193.359375 6579.179688 C 4877.070312 6757.226562 4532.929688 6876.875 4177.617188 6949.570312 C 4167.773438 6951.601562 4157.96875 6953.632812 4147.8125 6955.703125 C 3947.1875 6993.828125 3748.59375 7004.765625 3544.726562 7004.296875 C 3504.570312 7004.257812 3464.375 7004.609375 3424.179688 7004.921875 C 3241.367188 7005.546875 3065.039062 6989.0625 2884.765625 6958.984375 C 2861.445312 6955.117188 2861.445312 6955.117188 2837.65625 6951.171875 C 2246.09375 6844.921875 1684.882812 6571.679688 1230.46875 6179.6875 C 1220.273438 6171.015625 1210.078125 6162.34375 1199.609375 6153.398438 C 1014.960938 5991.914062 841.71875 5817.617188 697.265625 5619.140625 C 685.546875 5603.4375 673.828125 5587.695312 662.109375 5571.992188 C 579.53125 5460 505.9375 5343.75 437.5 5222.65625 C 431.992188 5212.96875 426.484375 5203.320312 420.820312 5193.359375 C 242.773438 4877.070312 123.125 4532.929688 50.429688 4177.617188 C 48.398438 4167.773438 46.367188 4157.96875 44.296875 4147.8125 C 3.632812 3933.90625 -5.117188 3722.382812 -4.257812 3505.117188 C -4.257812 3491.210938 -4.21875 3477.304688 -4.179688 3462.96875 C -3.515625 3263.203125 -0.078125 3067.265625 41.015625 2871.09375 C 43.75 2857.773438 46.445312 2844.453125 49.257812 2830.703125 C 187.617188 2169.21875 487.265625 1567.851562 957.03125 1080.078125 C 965.664062 1071.054688 974.296875 1062.03125 983.203125 1052.773438 C 1108.242188 923.046875 1235.351562 803.554688 1380.859375 697.265625 C 1396.601562 685.546875 1412.34375 673.789062 1428.085938 662.070312 C 1540.039062 579.53125 1656.289062 505.9375 1777.34375 437.5 C 1787.03125 431.992188 1796.679688 426.484375 1806.640625 420.820312 C 2122.929688 242.773438 2467.070312 123.125 2822.382812 50.429688 C 2832.226562 48.398438 2842.03125 46.367188 2852.1875 44.296875 C 3066.09375 3.632812 3277.617188 -5.117188 3494.882812 -4.257812 Z M 3494.882812 -4.257812 "/>
<path style=" stroke:none;fill-rule:nonzero;fill:rgb(99.215686%,99.607843%,98.823529%);fill-opacity:1;" d="M 1531.25 2501.953125 C 2546.40625 2501.953125 3561.523438 2501.953125 4607.421875 2501.953125 C 4607.421875 3471.953125 4607.421875 4441.992188 4607.421875 5441.40625 C 3592.265625 5441.40625 2577.148438 5441.40625 1531.25 5441.40625 C 1531.25 4471.40625 1531.25 3501.367188 1531.25 2501.953125 Z M 1531.25 2501.953125 "/>
<path style=" stroke:none;fill-rule:nonzero;fill:rgb(98.431373%,99.215686%,98.039216%);fill-opacity:1;" d="M 1531.25 1873.046875 C 1616.953125 1873.046875 1702.695312 1873.046875 1791.015625 1873.046875 C 1792.148438 1902.929688 1793.28125 1932.8125 1794.453125 1963.632812 C 1799.882812 2041.953125 1805.351562 2089.179688 1859.375 2146.484375 C 1895.976562 2164.765625 1925.351562 2162.96875 1966.171875 2163.59375 C 1980.390625 2163.945312 1994.570312 2164.296875 2009.179688 2164.648438 C 2056.601562 2159.53125 2081.132812 2147.5 2119.140625 2119.140625 C 2151.992188 2069.84375 2152.460938 2030.117188 2155.039062 1973.007812 C 2157.578125 1923.515625 2157.578125 1923.515625 2160.15625 1873.046875 C 2277.460938 1873.046875 2394.765625 1873.046875 2515.625 1873.046875 C 2517.851562 1920.664062 2520.078125 1968.28125 2522.304688 2015.898438 C 2529.53125 2066.09375 2539.921875 2092.734375 2570.3125 2132.8125 C 2618.984375 2165.273438 2641.679688 2163.828125 2699.335938 2163.59375 C 2714.84375 2163.632812 2730.3125 2163.710938 2746.289062 2163.789062 C 2788.320312 2160.234375 2810 2157.421875 2843.75 2132.8125 C 2886.367188 2078.710938 2891.015625 2032.1875 2894.179688 1964.492188 C 2895.585938 1934.296875 2896.992188 1904.140625 2898.4375 1873.046875 C 3015.742188 1873.046875 3133.046875 1873.046875 3253.90625 1873.046875 C 3257.34375 1971.328125 3257.34375 1971.328125 3257.96875 2001.875 C 3261.328125 2066.914062 3276.445312 2100.742188 3322.265625 2146.484375 C 3358.867188 2164.765625 3388.242188 2162.96875 3429.0625 2163.59375 C 3443.28125 2163.945312 3457.460938 2164.296875 3472.070312 2164.648438 C 3519.804688 2159.492188 3544.21875 2148.4375 3582.03125 2119.140625 C 3616.289062 2072.5 3614.765625 2021.757812 3617.929688 1965.3125 C 3620.46875 1919.648438 3620.46875 1919.648438 3623.046875 1873.046875 C 3740.351562 1873.046875 3857.65625 1873.046875 3978.515625 1873.046875 C 3981.953125 1971.328125 3981.953125 1971.328125 3982.578125 2001.875 C 3985.9375 2066.914062 4001.054688 2100.742188 4046.875 2146.484375 C 4083.476562 2164.765625 4112.851562 2162.96875 4153.671875 2163.59375 C 4167.890625 2163.945312 4182.070312 2164.296875 4196.679688 2164.648438 C 4244.414062 2159.492188 4268.828125 2148.4375 4306.640625 2119.140625 C 4340.898438 2072.5 4339.375 2021.757812 4342.539062 1965.3125 C 4345.078125 1919.648438 4345.078125 1919.648438 4347.65625 1873.046875 C 4433.359375 1873.046875 4519.101562 1873.046875 4607.421875 1873.046875 C 4607.421875 2053.515625 4607.421875 2233.984375 4607.421875 2419.921875 C 3592.265625 2419.921875 2577.148438 2419.921875 1531.25 2419.921875 C 1531.25 2239.453125 1531.25 2058.984375 1531.25 1873.046875 Z M 1531.25 1873.046875 "/>
<path style=" stroke:none;fill-rule:nonzero;fill:rgb(98.823529%,99.215686%,98.431373%);fill-opacity:1;" d="M 5318.359375 2597.65625 C 5363.476562 2597.65625 5408.59375 2597.65625 5455.078125 2597.65625 C 5455.078125 3382.695312 5455.078125 4167.734375 5455.078125 4976.5625 C 5409.960938 4976.5625 5364.84375 4976.5625 5318.359375 4976.5625 C 5318.359375 4191.523438 5318.359375 3406.484375 5318.359375 2597.65625 Z M 5318.359375 2597.65625 "/>
<path style=" stroke:none;fill-rule:nonzero;fill:rgb(98.823529%,99.215686%,98.431373%);fill-opacity:1;" d="M 5099.609375 2597.65625 C 5144.726562 2597.65625 5189.84375 2597.65625 5236.328125 2597.65625 C 5236.328125 3382.695312 5236.328125 4167.734375 5236.328125 4976.5625 C 5191.210938 4976.5625 5146.09375 4976.5625 5099.609375 4976.5625 C 5099.609375 4191.523438 5099.609375 3406.484375 5099.609375 2597.65625 Z M 5099.609375 2597.65625 "/>
<path style=" stroke:none;fill-rule:nonzero;fill:rgb(43.137255%,74.509805%,44.705883%);fill-opacity:1;" d="M 2214.84375 5003.90625 C 2503.398438 5003.59375 2791.914062 5003.359375 3080.46875 5003.203125 C 3214.453125 5003.125 3348.398438 5003.046875 3482.382812 5002.890625 C 3599.101562 5002.734375 3715.820312 5002.65625 3832.539062 5002.617188 C 3894.375 5002.617188 3956.210938 5002.578125 4018.046875 5002.460938 C 4076.210938 5002.382812 4134.335938 5002.34375 4192.460938 5002.34375 C 4213.867188 5002.34375 4235.273438 5002.34375 4256.679688 5002.265625 C 4285.78125 5002.226562 4314.882812 5002.226562 4343.945312 5002.265625 C 4360.273438 5002.265625 4376.601562 5002.226562 4393.398438 5002.226562 C 4429.6875 5003.90625 4429.6875 5003.90625 4443.359375 5017.578125 C 4443.90625 5040.351562 4443.945312 5063.164062 4443.359375 5085.9375 C 4404.882812 5105.195312 4372.929688 5101.367188 4329.882812 5101.445312 C 4316.445312 5101.484375 4316.445312 5101.484375 4302.773438 5101.523438 C 4272.695312 5101.601562 4242.617188 5101.601562 4212.539062 5101.601562 C 4191.015625 5101.640625 4169.53125 5101.679688 4148.007812 5101.71875 C 4089.492188 5101.875 4030.9375 5101.875 3972.421875 5101.914062 C 3923.632812 5101.914062 3874.84375 5101.953125 3826.054688 5101.992188 C 3710.976562 5102.109375 3595.898438 5102.148438 3480.859375 5102.148438 C 3361.992188 5102.148438 3243.125 5102.265625 3124.257812 5102.5 C 3022.34375 5102.65625 2920.390625 5102.734375 2818.476562 5102.734375 C 2757.539062 5102.734375 2696.601562 5102.773438 2635.703125 5102.929688 C 2578.398438 5103.046875 2521.132812 5103.046875 2463.867188 5102.96875 C 2442.8125 5102.929688 2421.71875 5102.96875 2400.664062 5103.046875 C 2371.992188 5103.164062 2343.320312 5103.085938 2314.648438 5103.007812 C 2298.59375 5103.007812 2282.539062 5103.007812 2265.976562 5103.007812 C 2228.515625 5099.609375 2228.515625 5099.609375 2201.171875 5072.265625 C 2206.289062 5036.367188 2206.289062 5036.367188 2214.84375 5003.90625 Z M 2214.84375 5003.90625 "/>
<path style=" stroke:none;fill-rule:nonzero;fill:rgb(43.137255%,74.509805%,44.705883%);fill-opacity:1;" d="M 2214.84375 3923.828125 C 2503.398438 3923.515625 2791.914062 3923.28125 3080.46875 3923.125 C 3214.453125 3923.046875 3348.398438 3922.96875 3482.382812 3922.8125 C 3599.101562 3922.65625 3715.820312 3922.578125 3832.539062 3922.539062 C 3894.375 3922.539062 3956.210938 3922.5 4018.046875 3922.382812 C 4076.210938 3922.304688 4134.335938 3922.265625 4192.460938 3922.265625 C 4213.867188 3922.265625 4235.273438 3922.265625 4256.679688 3922.1875 C 4285.78125 3922.148438 4314.882812 3922.148438 4343.945312 3922.1875 C 4360.273438 3922.1875 4376.601562 3922.148438 4393.398438 3922.148438 C 4429.6875 3923.828125 4429.6875 3923.828125 4443.359375 3937.5 C 4443.90625 3960.273438 4443.945312 3983.085938 4443.359375 4005.859375 C 4404.882812 4025.117188 4372.929688 4021.289062 4329.882812 4021.367188 C 4316.445312 4021.40625 4316.445312 4021.40625 4302.773438 4021.445312 C 4272.695312 4021.523438 4242.617188 4021.523438 4212.539062 4021.523438 C 4191.015625 4021.5625 4169.53125 4021.601562 4148.007812 4021.640625 C 4089.492188 4021.796875 4030.9375 4021.796875 3972.421875 4021.835938 C 3923.632812 4021.835938 3874.84375 4021.875 3826.054688 4021.914062 C 3710.976562 4022.03125 3595.898438 4022.070312 3480.859375 4022.070312 C 3361.992188 4022.070312 3243.125 4022.1875 3124.257812 4022.421875 C 3022.34375 4022.578125 2920.390625 4022.65625 2818.476562 4022.65625 C 2757.539062 4022.65625 2696.601562 4022.695312 2635.703125 4022.851562 C 2578.398438 4022.96875 2521.132812 4022.96875 2463.867188 4022.890625 C 2442.8125 4022.851562 2421.71875 4022.890625 2400.664062 4022.96875 C 2371.992188 4023.085938 2343.320312 4023.007812 2314.648438 4022.929688 C 2298.59375 4022.929688 2282.539062 4022.929688 2265.976562 4022.929688 C 2228.515625 4019.53125 2228.515625 4019.53125 2201.171875 3992.1875 C 2206.289062 3956.289062 2206.289062 3956.289062 2214.84375 3923.828125 Z M 2214.84375 3923.828125 "/>
<path style=" stroke:none;fill-rule:nonzero;fill:rgb(43.137255%,74.509805%,44.705883%);fill-opacity:1;" d="M 2265.976562 3373.554688 C 2282.03125 3373.554688 2298.125 3373.554688 2314.648438 3373.554688 C 2323.59375 3373.554688 2332.539062 3373.515625 2341.757812 3373.476562 C 2371.835938 3373.398438 2401.914062 3373.515625 2431.992188 3373.632812 C 2453.515625 3373.632812 2475 3373.59375 2496.523438 3373.554688 C 2555.039062 3373.476562 2613.59375 3373.59375 2672.109375 3373.710938 C 2733.242188 3373.867188 2794.414062 3373.828125 2855.546875 3373.828125 C 2958.28125 3373.828125 3060.976562 3373.945312 3163.671875 3374.140625 C 3282.539062 3374.335938 3401.40625 3374.414062 3520.273438 3374.414062 C 3634.453125 3374.414062 3748.671875 3374.492188 3862.851562 3374.609375 C 3911.523438 3374.648438 3960.15625 3374.648438 4008.828125 3374.6875 C 4066.132812 3374.6875 4123.398438 3374.765625 4180.664062 3374.921875 C 4201.71875 3374.960938 4222.8125 3374.960938 4243.867188 3374.960938 C 4272.539062 3374.960938 4301.210938 3375.039062 4329.882812 3375.117188 C 4353.984375 3375.15625 4353.984375 3375.15625 4378.554688 3375.195312 C 4416.015625 3376.953125 4416.015625 3376.953125 4443.359375 3390.625 C 4443.945312 3413.398438 4443.90625 3436.210938 4443.359375 3458.984375 C 4429.6875 3472.65625 4429.6875 3472.65625 4393.398438 3474.335938 C 4377.109375 3474.335938 4360.78125 3474.296875 4343.945312 3474.296875 C 4330.390625 3474.335938 4330.390625 3474.335938 4316.523438 3474.335938 C 4285.9375 3474.375 4255.390625 3474.296875 4224.804688 3474.21875 C 4203.007812 3474.21875 4181.171875 3474.21875 4159.335938 3474.21875 C 4099.921875 3474.21875 4040.507812 3474.140625 3981.054688 3474.023438 C 3919.023438 3473.945312 3856.992188 3473.945312 3794.960938 3473.945312 C 3677.382812 3473.90625 3559.804688 3473.789062 3442.265625 3473.632812 C 3308.4375 3473.476562 3174.648438 3473.398438 3040.820312 3473.359375 C 2765.507812 3473.203125 2490.15625 3472.96875 2214.84375 3472.65625 C 2206.289062 3440.195312 2206.289062 3440.195312 2201.171875 3404.296875 C 2228.515625 3376.953125 2228.515625 3376.953125 2265.976562 3373.554688 Z M 2265.976562 3373.554688 "/>
<path style=" stroke:none;fill-rule:nonzero;fill:rgb(43.921569%,74.901962%,45.490196%);fill-opacity:1;" d="M 2214.84375 2843.75 C 2945.742188 2843.75 3676.640625 2843.75 4429.6875 2843.75 C 4434.21875 2866.328125 4438.710938 2888.867188 4443.359375 2912.109375 C 4405.390625 2950.078125 4383.046875 2942.890625 4329.882812 2942.929688 C 4320.9375 2942.96875 4311.992188 2943.007812 4302.773438 2943.046875 C 4272.695312 2943.164062 4242.617188 2943.085938 4212.539062 2943.007812 C 4191.015625 2943.046875 4169.53125 2943.085938 4148.007812 2943.125 C 4089.492188 2943.242188 4030.9375 2943.203125 3972.421875 2943.125 C 3911.289062 2943.046875 3850.117188 2943.125 3788.984375 2943.164062 C 3686.25 2943.203125 3583.554688 2943.164062 3480.859375 2943.007812 C 3361.992188 2942.851562 3243.125 2942.929688 3124.257812 2943.085938 C 3022.34375 2943.203125 2920.390625 2943.203125 2818.476562 2943.125 C 2757.539062 2943.085938 2696.601562 2943.085938 2635.703125 2943.164062 C 2578.398438 2943.242188 2521.132812 2943.203125 2463.867188 2943.046875 C 2442.8125 2943.007812 2421.71875 2943.007812 2400.664062 2943.085938 C 2371.992188 2943.164062 2343.320312 2943.046875 2314.648438 2942.929688 C 2298.59375 2942.929688 2282.539062 2942.890625 2265.976562 2942.890625 C 2228.515625 2939.453125 2228.515625 2939.453125 2201.171875 2912.109375 C 2205.703125 2889.53125 2210.195312 2866.992188 2214.84375 2843.75 Z M 2214.84375 2843.75 "/>
<path style=" stroke:none;fill-rule:nonzero;fill:rgb(40.000001%,73.333335%,41.568628%);fill-opacity:1;" d="M 2251.132812 4469.023438 C 2275.585938 4469.023438 2275.585938 4469.023438 2300.585938 4469.0625 C 2314.140625 4469.023438 2314.140625 4469.023438 2328.007812 4469.023438 C 2358.59375 4468.984375 2389.140625 4469.0625 2419.726562 4469.140625 C 2441.523438 4469.140625 2463.359375 4469.140625 2485.195312 4469.140625 C 2544.609375 4469.140625 2604.023438 4469.21875 2663.476562 4469.335938 C 2725.507812 4469.414062 2787.539062 4469.414062 2849.570312 4469.414062 C 2967.148438 4469.453125 3084.726562 4469.570312 3202.265625 4469.726562 C 3336.09375 4469.882812 3469.882812 4469.960938 3603.710938 4470 C 3879.023438 4470.15625 4154.375 4470.390625 4429.6875 4470.703125 C 4434.921875 4493.359375 4439.453125 4516.171875 4443.359375 4539.0625 C 4429.6875 4552.734375 4429.6875 4552.734375 4393.398438 4554.414062 C 4377.109375 4554.414062 4360.78125 4554.375 4343.945312 4554.375 C 4330.390625 4554.414062 4330.390625 4554.414062 4316.523438 4554.414062 C 4285.9375 4554.453125 4255.390625 4554.375 4224.804688 4554.296875 C 4203.007812 4554.296875 4181.171875 4554.296875 4159.335938 4554.296875 C 4099.921875 4554.296875 4040.507812 4554.21875 3981.054688 4554.101562 C 3919.023438 4554.023438 3856.992188 4554.023438 3794.960938 4554.023438 C 3677.382812 4553.984375 3559.804688 4553.867188 3442.265625 4553.710938 C 3308.4375 4553.554688 3174.648438 4553.476562 3040.820312 4553.4375 C 2765.507812 4553.28125 2490.15625 4553.046875 2214.84375 4552.734375 C 2209.609375 4530.078125 2205.078125 4507.265625 2201.171875 4484.375 C 2214.84375 4470.703125 2214.84375 4470.703125 2251.132812 4469.023438 Z M 2251.132812 4469.023438 "/>
<path style=" stroke:none;fill-rule:nonzero;fill:rgb(99.607843%,99.607843%,99.215686%);fill-opacity:1;" d="M 5332.03125 2146.484375 C 5389.101562 2170.585938 5422.109375 2203.75 5455.078125 2255.859375 C 5461.640625 2298.59375 5460.234375 2340.078125 5458.515625 2383.164062 C 5457.382812 2422.382812 5456.25 2461.5625 5455.078125 2501.953125 C 5337.773438 2501.953125 5220.46875 2501.953125 5099.609375 2501.953125 C 5098.75 2462.773438 5097.929688 2423.554688 5097.03125 2383.164062 C 5096.679688 2370.9375 5096.289062 2358.710938 5095.898438 2346.132812 C 5095.234375 2281.71875 5098.867188 2239.84375 5140.625 2187.5 C 5198.632812 2138.046875 5259.179688 2136.796875 5332.03125 2146.484375 Z M 5332.03125 2146.484375 "/>
<path style=" stroke:none;fill-rule:nonzero;fill:rgb(95.686275%,98.039216%,95.686275%);fill-opacity:1;" d="M 4163.085938 1553.476562 C 4173.671875 1553.359375 4184.21875 1553.242188 4195.117188 1553.164062 C 4233.476562 1560.234375 4242.851562 1567.851562 4265.625 1599.609375 C 4269.6875 1634.492188 4271.367188 1665.976562 4271.054688 1700.859375 C 4271.132812 1715.664062 4271.132812 1715.664062 4271.171875 1730.742188 C 4271.210938 1751.5625 4271.132812 1772.382812 4270.976562 1793.203125 C 4270.742188 1825.078125 4270.976562 1856.914062 4271.25 1888.789062 C 4271.210938 1909.023438 4271.171875 1929.296875 4271.054688 1949.53125 C 4271.210938 1963.828125 4271.210938 1963.828125 4271.328125 1978.398438 C 4270.742188 2018.085938 4270.15625 2044.453125 4246.601562 2077.265625 C 4217.617188 2096.40625 4197.695312 2097.734375 4163.085938 2097.773438 C 4152.5 2098.046875 4141.953125 2098.320312 4131.054688 2098.59375 C 4101.5625 2091.796875 4101.5625 2091.796875 4079.570312 2070.273438 C 4053.4375 2024.726562 4055.234375 1989.84375 4055.117188 1937.5 C 4055.078125 1927.96875 4055.039062 1918.4375 4055 1908.59375 C 4054.960938 1888.515625 4055.039062 1868.398438 4055.195312 1848.320312 C 4055.429688 1817.539062 4055.195312 1786.835938 4054.921875 1756.054688 C 4054.960938 1736.523438 4055 1716.953125 4055.117188 1697.382812 C 4055.15625 1679.648438 4055.195312 1661.875 4055.234375 1643.554688 C 4060.546875 1599.609375 4060.546875 1599.609375 4079.570312 1573.320312 C 4108.632812 1553.867188 4128.28125 1553.125 4163.085938 1553.476562 Z M 4163.085938 1553.476562 "/>
<path style=" stroke:none;fill-rule:nonzero;fill:rgb(95.686275%,98.039216%,95.686275%);fill-opacity:1;" d="M 1975.585938 1553.476562 C 1986.171875 1553.359375 1996.71875 1553.242188 2007.617188 1553.164062 C 2045.976562 1560.234375 2055.351562 1567.851562 2078.125 1599.609375 C 2082.1875 1634.492188 2083.867188 1665.976562 2083.554688 1700.859375 C 2083.632812 1715.664062 2083.632812 1715.664062 2083.671875 1730.742188 C 2083.710938 1751.5625 2083.632812 1772.382812 2083.476562 1793.203125 C 2083.242188 1825.078125 2083.476562 1856.914062 2083.75 1888.789062 C 2083.710938 1909.023438 2083.671875 1929.296875 2083.554688 1949.53125 C 2083.710938 1963.828125 2083.710938 1963.828125 2083.828125 1978.398438 C 2083.242188 2018.085938 2082.65625 2044.453125 2059.101562 2077.265625 C 2030.117188 2096.40625 2010.195312 2097.734375 1975.585938 2097.773438 C 1965 2098.046875 1954.453125 2098.320312 1943.554688 2098.59375 C 1914.0625 2091.796875 1914.0625 2091.796875 1892.070312 2070.273438 C 1865.9375 2024.726562 1867.734375 1989.84375 1867.617188 1937.5 C 1867.578125 1927.96875 1867.539062 1918.4375 1867.5 1908.59375 C 1867.460938 1888.515625 1867.539062 1868.398438 1867.695312 1848.320312 C 1867.929688 1817.539062 1867.695312 1786.835938 1867.421875 1756.054688 C 1867.460938 1736.523438 1867.5 1716.953125 1867.617188 1697.382812 C 1867.65625 1679.648438 1867.695312 1661.875 1867.734375 1643.554688 C 1873.046875 1599.609375 1873.046875 1599.609375 1892.070312 1573.320312 C 1921.132812 1553.867188 1940.78125 1553.125 1975.585938 1553.476562 Z M 1975.585938 1553.476562 "/>
<path style=" stroke:none;fill-rule:nonzero;fill:rgb(96.078432%,98.039216%,95.686275%);fill-opacity:1;" d="M 3438.476562 1552.617188 C 3449.0625 1552.34375 3459.609375 1552.070312 3470.507812 1551.796875 C 3500 1558.59375 3500 1558.59375 3521.992188 1580.351562 C 3547.695312 1624.84375 3546.5625 1658.164062 3546.953125 1709.414062 C 3547.03125 1718.59375 3547.070312 1727.8125 3547.148438 1737.304688 C 3547.265625 1756.679688 3547.226562 1776.09375 3547.109375 1795.46875 C 3546.992188 1825.117188 3547.382812 1854.6875 3547.8125 1884.296875 C 3547.851562 1903.203125 3547.851562 1922.109375 3547.8125 1940.976562 C 3547.8125 1958.085938 3547.851562 1975.234375 3547.890625 1992.851562 C 3539.84375 2044.570312 3527.460938 2060.585938 3486.328125 2091.796875 C 3446.5625 2101.484375 3418.75 2096.445312 3376.953125 2091.796875 C 3353.4375 2077.226562 3353.4375 2077.226562 3335.9375 2050.78125 C 3331.875 2015.898438 3330.195312 1984.414062 3330.507812 1949.53125 C 3330.46875 1939.648438 3330.429688 1929.804688 3330.390625 1919.648438 C 3330.351562 1898.828125 3330.429688 1878.007812 3330.585938 1857.1875 C 3330.820312 1825.3125 3330.585938 1793.476562 3330.3125 1761.601562 C 3330.351562 1741.367188 3330.390625 1721.09375 3330.507812 1700.859375 C 3330.390625 1691.328125 3330.3125 1681.796875 3330.234375 1671.992188 C 3330.820312 1632.304688 3331.40625 1605.9375 3354.960938 1573.125 C 3383.945312 1553.984375 3403.867188 1552.65625 3438.476562 1552.617188 Z M 3438.476562 1552.617188 "/>
<path style=" stroke:none;fill-rule:nonzero;fill:rgb(98.823529%,99.215686%,98.431373%);fill-opacity:1;" d="M 2707.03125 1554.335938 C 2716.328125 1554.101562 2725.625 1553.867188 2735.234375 1553.632812 C 2771.601562 1560.429688 2780.9375 1569.492188 2802.734375 1599.609375 C 2806.796875 1634.492188 2808.476562 1665.976562 2808.164062 1700.859375 C 2808.242188 1715.664062 2808.242188 1715.664062 2808.28125 1730.742188 C 2808.320312 1751.5625 2808.242188 1772.382812 2808.085938 1793.203125 C 2807.851562 1825.078125 2808.085938 1856.914062 2808.359375 1888.789062 C 2808.320312 1909.023438 2808.28125 1929.296875 2808.164062 1949.53125 C 2808.320312 1963.828125 2808.320312 1963.828125 2808.4375 1978.398438 C 2807.851562 2018.203125 2807.304688 2044.492188 2783.554688 2077.265625 C 2756.328125 2095.390625 2739.570312 2097.304688 2707.03125 2096.914062 C 2693.085938 2097.070312 2693.085938 2097.070312 2678.828125 2097.226562 C 2642.539062 2089.765625 2633.085938 2081.054688 2611.328125 2050.78125 C 2607.265625 2014.765625 2605.585938 1982.070312 2605.898438 1946.054688 C 2605.859375 1935.859375 2605.820312 1925.664062 2605.78125 1915.15625 C 2605.742188 1893.632812 2605.820312 1872.109375 2605.976562 1850.585938 C 2606.210938 1817.578125 2605.976562 1784.570312 2605.703125 1751.5625 C 2605.742188 1730.664062 2605.78125 1709.765625 2605.898438 1688.867188 C 2605.78125 1678.945312 2605.703125 1669.0625 2605.625 1658.867188 C 2606.015625 1631.054688 2606.015625 1631.054688 2611.328125 1585.9375 C 2651.914062 1558.867188 2661.328125 1554.570312 2707.03125 1554.335938 Z M 2707.03125 1554.335938 "/>
<path style=" stroke:none;fill-rule:nonzero;fill:rgb(97.647059%,98.823529%,97.647059%);fill-opacity:1;" d="M 5126.953125 5072.265625 C 5226.210938 5072.265625 5325.46875 5072.265625 5427.734375 5072.265625 C 5396.953125 5164.53125 5396.953125 5164.53125 5373.789062 5207.1875 C 5368.945312 5216.171875 5364.101562 5225.15625 5359.101562 5234.414062 C 5354.101562 5243.515625 5349.140625 5252.578125 5343.984375 5261.953125 C 5336.367188 5276.09375 5336.367188 5276.09375 5328.554688 5290.46875 C 5316.09375 5313.476562 5303.554688 5336.445312 5291.015625 5359.375 C 5250 5345.703125 5250 5345.703125 5234.0625 5321.992188 C 5229.101562 5311.914062 5224.179688 5301.875 5219.0625 5291.484375 C 5213.671875 5280.546875 5208.242188 5269.609375 5202.65625 5258.359375 C 5197.148438 5246.875 5191.601562 5235.351562 5185.898438 5223.515625 C 5177.382812 5206.328125 5177.382812 5206.328125 5168.671875 5188.828125 C 5126.953125 5103.632812 5126.953125 5103.632812 5126.953125 5072.265625 Z M 5126.953125 5072.265625 "/>
<path style=" stroke:none;fill-rule:nonzero;fill:rgb(43.921569%,74.901962%,45.09804%);fill-opacity:1;" d="M 1708.984375 5003.90625 C 1761.09375 5003.515625 1813.242188 5003.28125 1865.351562 5003.046875 C 1880.234375 5002.929688 1895.117188 5002.8125 1910.46875 5002.695312 C 1924.609375 5002.65625 1938.75 5002.617188 1953.320312 5002.578125 C 1966.40625 5002.5 1979.53125 5002.421875 1993.007812 5002.34375 C 2023.4375 5003.90625 2023.4375 5003.90625 2037.109375 5017.578125 C 2037.65625 5040.351562 2037.695312 5063.164062 2037.109375 5085.9375 C 1985.546875 5111.71875 1922.929688 5102.148438 1866.210938 5102.1875 C 1846.210938 5102.421875 1846.210938 5102.421875 1825.78125 5102.695312 C 1806.679688 5102.734375 1806.679688 5102.734375 1787.1875 5102.773438 C 1775.46875 5102.8125 1763.75 5102.890625 1751.679688 5102.929688 C 1722.65625 5099.609375 1722.65625 5099.609375 1695.3125 5072.265625 C 1700.429688 5036.367188 1700.429688 5036.367188 1708.984375 5003.90625 Z M 1708.984375 5003.90625 "/>
<path style=" stroke:none;fill-rule:nonzero;fill:rgb(43.921569%,74.901962%,45.09804%);fill-opacity:1;" d="M 1708.984375 3923.828125 C 1761.09375 3923.4375 1813.242188 3923.203125 1865.351562 3922.96875 C 1880.234375 3922.851562 1895.117188 3922.734375 1910.46875 3922.617188 C 1924.609375 3922.578125 1938.75 3922.539062 1953.320312 3922.5 C 1966.40625 3922.421875 1979.53125 3922.34375 1993.007812 3922.265625 C 2023.4375 3923.828125 2023.4375 3923.828125 2037.109375 3937.5 C 2037.65625 3960.273438 2037.695312 3983.085938 2037.109375 4005.859375 C 1985.546875 4031.640625 1922.929688 4022.070312 1866.210938 4022.109375 C 1846.210938 4022.34375 1846.210938 4022.34375 1825.78125 4022.617188 C 1806.679688 4022.65625 1806.679688 4022.65625 1787.1875 4022.695312 C 1775.46875 4022.734375 1763.75 4022.8125 1751.679688 4022.851562 C 1722.65625 4019.53125 1722.65625 4019.53125 1695.3125 3992.1875 C 1700.429688 3956.289062 1700.429688 3956.289062 1708.984375 3923.828125 Z M 1708.984375 3923.828125 "/>
<path style=" stroke:none;fill-rule:nonzero;fill:rgb(43.921569%,74.901962%,45.09804%);fill-opacity:1;" d="M 1751.679688 3373.632812 C 1769.257812 3373.710938 1769.257812 3373.710938 1787.1875 3373.789062 C 1799.921875 3373.828125 1812.65625 3373.867188 1825.78125 3373.867188 C 1845.78125 3374.140625 1845.78125 3374.140625 1866.210938 3374.375 C 1879.570312 3374.414062 1892.890625 3374.414062 1906.640625 3374.414062 C 2005.9375 3375.039062 2005.9375 3375.039062 2037.109375 3390.625 C 2037.695312 3413.398438 2037.65625 3436.210938 2037.109375 3458.984375 C 2023.4375 3472.65625 2023.4375 3472.65625 1993.007812 3474.21875 C 1979.921875 3474.140625 1966.796875 3474.0625 1953.320312 3473.984375 C 1932.109375 3473.90625 1932.109375 3473.90625 1910.46875 3473.867188 C 1895.585938 3473.75 1880.703125 3473.632812 1865.351562 3473.515625 C 1842.96875 3473.4375 1842.96875 3473.4375 1820.078125 3473.320312 C 1783.046875 3473.164062 1746.015625 3472.929688 1708.984375 3472.65625 C 1700.429688 3440.195312 1700.429688 3440.195312 1695.3125 3404.296875 C 1722.65625 3376.953125 1722.65625 3376.953125 1751.679688 3373.632812 Z M 1751.679688 3373.632812 "/>
<path style=" stroke:none;fill-rule:nonzero;fill:rgb(43.921569%,74.901962%,45.490196%);fill-opacity:1;" d="M 1708.984375 2843.75 C 1812.734375 2843.75 1916.523438 2843.75 2023.4375 2843.75 C 2027.96875 2866.328125 2032.460938 2888.867188 2037.109375 2912.109375 C 2003.046875 2946.171875 1992.1875 2942.96875 1945.234375 2943.085938 C 1932.5 2943.125 1919.765625 2943.164062 1906.640625 2943.203125 C 1893.28125 2943.085938 1879.960938 2942.96875 1866.210938 2942.890625 C 1852.851562 2942.96875 1839.53125 2943.085938 1825.78125 2943.203125 C 1813.046875 2943.164062 1800.3125 2943.125 1787.1875 2943.085938 C 1775.46875 2943.046875 1763.75 2943.007812 1751.679688 2943.007812 C 1722.65625 2939.453125 1722.65625 2939.453125 1695.3125 2912.109375 C 1699.84375 2889.53125 1704.335938 2866.992188 1708.984375 2843.75 Z M 1708.984375 2843.75 "/>
<path style=" stroke:none;fill-rule:nonzero;fill:rgb(40.392157%,73.333335%,41.960785%);fill-opacity:1;" d="M 1739.414062 4469.140625 C 1752.5 4469.21875 1765.625 4469.296875 1779.101562 4469.375 C 1800.3125 4469.453125 1800.3125 4469.453125 1821.953125 4469.492188 C 1836.835938 4469.609375 1851.71875 4469.726562 1867.070312 4469.84375 C 1889.453125 4469.921875 1889.453125 4469.921875 1912.34375 4470.039062 C 1949.375 4470.195312 1986.40625 4470.429688 2023.4375 4470.703125 C 2028.671875 4493.359375 2033.203125 4516.171875 2037.109375 4539.0625 C 2023.4375 4552.734375 2023.4375 4552.734375 1993.007812 4554.296875 C 1979.921875 4554.21875 1966.796875 4554.140625 1953.320312 4554.0625 C 1932.109375 4553.984375 1932.109375 4553.984375 1910.46875 4553.945312 C 1895.585938 4553.828125 1880.703125 4553.710938 1865.351562 4553.59375 C 1842.96875 4553.515625 1842.96875 4553.515625 1820.078125 4553.398438 C 1783.046875 4553.242188 1746.015625 4553.007812 1708.984375 4552.734375 C 1703.75 4530.078125 1699.21875 4507.265625 1695.3125 4484.375 C 1708.984375 4470.703125 1708.984375 4470.703125 1739.414062 4469.140625 Z M 1739.414062 4469.140625 "/>
</g>
</svg>
